<svg width="44" height="44" viewBox="0 0 44 44" fill="none" xmlns="http://www.w3.org/2000/svg">
<circle cx="22" cy="22" r="22" fill="#0269AC" fill-opacity="0.08"/>
<g clip-path="url(#clip0_1_8)">
<path fill-rule="evenodd" clip-rule="evenodd" d="M28.8962 17.7328C28.6712 17.7328 28.5025 17.5641 28.5025 17.3532V15.1599C28.5025 14.949 28.6712 14.7662 28.8962 14.7662C29.1071 14.7662 29.2758 14.949 29.2758 15.1599V17.3532C29.2758 17.5641 29.1071 17.7328 28.8962 17.7328ZM31.2723 17.7328C31.1739 17.7328 31.0754 17.7047 31.0051 17.6204C30.8505 17.4798 30.8505 17.2267 31.0051 17.072L32.5517 15.5255C32.7064 15.3708 32.9454 15.3708 33.1 15.5255C33.2547 15.6801 33.2547 15.9191 33.1 16.0738L31.5535 17.6204C31.4832 17.7047 31.3707 17.7328 31.2723 17.7328ZM26.506 17.7328C26.4076 17.7328 26.3092 17.7047 26.2248 17.6204L24.6782 16.0738C24.5236 15.9191 24.5236 15.6801 24.6782 15.5255C24.8329 15.3708 25.0719 15.3708 25.2266 15.5255L26.7732 17.072C26.9278 17.2267 26.9278 17.4798 26.7732 17.6204C26.7029 17.7047 26.6044 17.7328 26.506 17.7328Z" fill="#0269AC"/>
<path fill-rule="evenodd" clip-rule="evenodd" d="M13.2337 14.6397L10.0843 26.4217C9.91558 27.0825 9.97182 28.376 10.492 28.8963C12.4745 30.8506 15.1599 32.0878 17.8172 32.8049C18.5201 32.9876 19.2513 33.0579 19.9824 33.0439C21.304 33.0298 22.6537 32.7767 23.9191 32.4112C24.5237 32.2425 25.1704 32.0316 25.7469 31.7785C25.8031 31.7644 25.8734 31.7644 25.9296 31.7926C26.0843 31.905 26.2671 32.0035 26.4499 32.0878C26.8857 32.3128 27.3497 32.5237 27.8136 32.7064C29.2618 33.2688 30.8224 33.6063 32.3831 33.6344L32.4955 33.6485L32.5518 33.536C33.2829 32.2565 33.7047 30.6537 33.8875 29.1915C34.0843 27.5746 34.0562 25.5922 33.4797 24.0456C32.7908 22.2319 31.188 20.9806 29.2337 20.8541C27.2372 20.7135 25.5078 21.8101 24.4955 23.4973L24.4112 23.6379L24.5237 23.7504C25.1423 24.3268 25.6203 25.0439 25.9718 25.8031C26.014 25.8875 25.9859 26.014 25.8875 26.0562C25.8593 26.0562 25.8312 26.0702 25.8031 26.0702C25.7328 26.0702 25.6625 26.0281 25.6203 25.9578C24.7627 24.13 23.1458 22.6959 21.0509 22.6397C19.0263 22.5834 17.3391 23.8488 16.3971 25.5922C16.3549 25.6906 16.2425 25.7188 16.1441 25.6766C16.0456 25.6203 16.0035 25.5079 16.0597 25.4094C16.4252 24.7486 16.8892 24.13 17.4516 23.6238L17.5219 23.5535V17.6485L16.594 16.1159C16.5658 16.0597 16.5658 16.0035 16.5799 15.9472C16.608 15.891 16.6643 15.8488 16.7205 15.8347L18.5764 15.3708C18.6467 15.3567 18.717 15.3708 18.7592 15.413L20.1651 16.7767L22.6818 13.5008L20.1511 10.3514L13.2337 14.6397ZM28.7838 27.3075C28.6994 27.2653 28.6572 27.1388 28.7135 27.0544C28.7697 26.956 28.8822 26.9279 28.9806 26.9841C30.1335 27.6449 31.3567 28.1651 32.6361 28.5588C32.7346 28.5869 32.7908 28.6854 32.7627 28.7978C32.7346 28.8822 32.6643 28.9244 32.5799 28.9244H32.5237C31.2161 28.5588 29.9648 27.9824 28.7838 27.3075ZM14.6397 28.3057C16.4815 29.3743 18.5764 30.1616 20.6994 30.4428C20.7978 30.4709 20.8822 30.5553 20.8681 30.6678C20.8541 30.7662 20.7697 30.8365 20.6713 30.8365H20.6572C18.478 30.5553 16.3409 29.7258 14.4428 28.6291C14.3444 28.5869 14.3163 28.4604 14.3725 28.376C14.4288 28.2776 14.5412 28.2495 14.6397 28.3057Z" fill="#0269AC"/>
</g>
<defs>
<clipPath id="clip0_1_8">
<rect width="24" height="24" fill="white" transform="translate(10 10)"/>
</clipPath>
</defs>
</svg>
