<svg width="44" height="44" viewBox="0 0 44 44" fill="none" xmlns="http://www.w3.org/2000/svg">
<circle cx="22" cy="22" r="22" fill="#0269AC" fill-opacity="0.08"/>
<g clip-path="url(#clip0_1_12)">
<path d="M33.25 34H29.25C29.0511 34 28.8603 33.921 28.7197 33.7803C28.579 33.6397 28.5 33.4489 28.5 33.25V32H25.5V33.25C25.5 33.4489 25.421 33.6397 25.2803 33.7803C25.1397 33.921 24.9489 34 24.75 34H19.25C19.0511 34 18.8603 33.921 18.7197 33.7803C18.579 33.6397 18.5 33.4489 18.5 33.25V32H15.5V33.25C15.5 33.4489 15.421 33.6397 15.2803 33.7803C15.1397 33.921 14.9489 34 14.75 34H10.75C10.5511 34 10.3603 33.921 10.2197 33.7803C10.079 33.6397 10 33.4489 10 33.25V30H34V33.25C34 33.4489 33.921 33.6397 33.7803 33.7803C33.6397 33.921 33.4489 34 33.25 34ZM26 10H23V12C23 12.2652 22.8946 12.5196 22.7071 12.7071C22.5196 12.8946 22.2652 13 22 13C21.7348 13 21.4804 12.8946 21.2929 12.7071C21.1054 12.5196 21 12.2652 21 12V10H18C17.7348 10 17.4804 10.1054 17.2929 10.2929C17.1054 10.4804 17 10.7348 17 11V17C17 17.2652 17.1054 17.5196 17.2929 17.7071C17.4804 17.8946 17.7348 18 18 18H26C26.2652 18 26.5196 17.8946 26.7071 17.7071C26.8946 17.5196 27 17.2652 27 17V11C27 10.7348 26.8946 10.4804 26.7071 10.2929C26.5196 10.1054 26.2652 10 26 10ZM20 20H17V22C17 22.2652 16.8946 22.5196 16.7071 22.7071C16.5196 22.8946 16.2652 23 16 23C15.7348 23 15.4804 22.8946 15.2929 22.7071C15.1054 22.5196 15 22.2652 15 22V20H12C11.7348 20 11.4804 20.1054 11.2929 20.2929C11.1054 20.4804 11 20.7348 11 21V27C11 27.2652 11.1054 27.5196 11.2929 27.7071C11.4804 27.8946 11.7348 28 12 28H20C20.2652 28 20.5196 27.8946 20.7071 27.7071C20.8946 27.5196 21 27.2652 21 27V21C21 20.7348 20.8946 20.4804 20.7071 20.2929C20.5196 20.1054 20.2652 20 20 20ZM32 20H29V22C29 22.2652 28.8946 22.5196 28.7071 22.7071C28.5196 22.8946 28.2652 23 28 23C27.7348 23 27.4804 22.8946 27.2929 22.7071C27.1054 22.5196 27 22.2652 27 22V20H24C23.7348 20 23.4804 20.1054 23.2929 20.2929C23.1054 20.4804 23 20.7348 23 21V27C23 27.2652 23.1054 27.5196 23.2929 27.7071C23.4804 27.8946 23.7348 28 24 28H32C32.2652 28 32.5196 27.8946 32.7071 27.7071C32.8946 27.5196 33 27.2652 33 27V21C33 20.7348 32.8946 20.4804 32.7071 20.2929C32.5196 20.1054 32.2652 20 32 20Z" fill="#0269AC"/>
</g>
<defs>
<clipPath id="clip0_1_12">
<rect width="24" height="24" fill="white" transform="translate(10 10)"/>
</clipPath>
</defs>
</svg>
