<svg width="100" height="100" viewBox="0 0 100 100" fill="none" xmlns="http://www.w3.org/2000/svg">
<circle cx="50" cy="50" r="49.5" stroke="black"/>
<g clip-path="url(#clip0_119_286)">
<path d="M50.0039 85.521L65.8522 81.5188C74.8983 74.0072 80.6602 62.6772 80.6602 50.0002C80.6602 30.4464 66.9553 14.0938 48.627 10.0233C27.1714 10.7469 10 28.3682 10 50C10 61.1113 14.5312 71.1635 21.8456 78.4119L50.0039 85.521Z" fill="#CBE2FF"/>
<path d="M79.8302 50C79.8302 63.1117 73.5207 74.7486 63.7732 82.0436L78.153 78.4122C85.4679 71.1638 89.9999 61.1116 89.9999 50C89.9999 27.9086 72.0913 10 49.9999 10C48.2774 10 46.5802 10.1091 44.915 10.3203C64.6055 12.8184 79.8302 29.6313 79.8302 50Z" fill="#BED8FB"/>
<path d="M59.941 25.1495C59.941 23.1065 58.2849 21.4504 56.2419 21.4504H43.4947C38.793 21.4504 34.9814 25.262 34.9814 29.9637V39.4158H65.0141V30.0978C65.0141 28.0548 63.358 26.3987 61.315 26.3987H61.1904C60.5004 26.3987 59.941 25.8395 59.941 25.1495Z" fill="#0269AC"/>
<path d="M61.315 26.3979H61.1903C60.5003 26.3979 59.941 25.8385 59.941 25.1485C59.941 23.1056 58.2849 21.4495 56.2419 21.4495H54.8442V39.4148H65.0139V30.0968C65.0141 28.0542 63.3578 26.3979 61.315 26.3979Z" fill="#2B4D66"/>
<path d="M76.4134 68.1804C75.4354 67.2144 74.2258 66.4674 72.8525 66.0327L61.932 62.5752L50.0026 62.156L38.0683 62.5752L27.1478 66.0327C23.4534 67.2024 20.9426 70.6308 20.9426 74.506V77.4894C27.9409 84.8844 37.7318 89.6094 48.6275 89.9769C60.835 87.2655 70.9914 79.1057 76.4134 68.1804Z" fill="#4A80AA"/>
<path d="M79.0575 77.4893V74.5058C79.0575 71.7658 77.8013 69.2503 75.7599 67.5975C69.9613 79.4141 58.5064 87.9519 44.9246 89.6783C46.5639 89.886 48.2336 89.9967 49.9286 89.9997C51.5572 89.9972 53.1642 89.9028 54.7449 89.7213C64.281 88.5944 72.7894 84.1128 79.0575 77.4893Z" fill="#407093"/>
<path d="M50.9057 89.4012C53.3259 84.5963 59.6279 70.9532 57.8309 62.431L50.0026 59.3843L42.167 62.4312C40.3145 71.2163 47.0685 85.4432 49.3046 89.8202C49.8424 89.6912 50.3763 89.5513 50.9057 89.4012Z" fill="#E4F6FF"/>
<path d="M55.031 85.592L51.8569 73.105H48.1433L44.9771 85.558L48.8924 89.9169C49.8863 89.6892 50.8664 89.4253 51.8314 89.1267L55.031 85.592Z" fill="#E28086"/>
<path d="M48.9534 89.985C49.2776 89.9935 49.6024 89.9993 49.9285 89.9999C50.3059 89.9993 50.682 89.9927 51.057 89.9822L53.0737 87.7543C51.4863 88.3111 49.8534 88.7708 48.1816 89.126L48.9534 89.985Z" fill="#DD636E"/>
<path d="M56.6836 61.2785V54.2369H43.3118V61.2785C43.3118 64.971 49.9977 69.0044 49.9977 69.0044C49.9977 69.0044 56.6836 64.971 56.6836 61.2785Z" fill="#FFDDCE"/>
<path d="M65.0141 38.1746H62.458C61.0364 38.1746 59.8841 37.0222 59.8841 35.6007V34.1921C59.8841 32.3404 58.0724 31.0311 56.3143 31.6122C52.2138 32.9675 47.7863 32.9679 43.6857 31.6132L43.6808 31.6116C41.9227 31.0308 40.1113 32.34 40.1113 34.1916V35.6008C40.1113 37.0224 38.9589 38.1747 37.5374 38.1747H34.9814V42.3838C34.9814 43.4593 35.8533 44.3313 36.9289 44.3313C37.2683 44.3313 37.5444 44.5971 37.5658 44.9358C37.9764 51.4464 43.3838 56.6005 49.9979 56.6005C56.6119 56.6005 62.0193 51.4464 62.4299 44.9358C62.4513 44.5972 62.7274 44.3313 63.0668 44.3313C64.1422 44.3313 65.0143 43.4594 65.0143 42.3838V38.1746H65.0141Z" fill="#FFDDCE"/>
<path d="M62.4581 38.1744C61.0365 38.1744 59.8842 37.0221 59.8842 35.6005V34.1919C59.8842 32.3402 58.0725 31.031 56.3143 31.6121C55.8287 31.7726 55.3382 31.9126 54.8445 32.0351V45.937C54.7761 50.4601 52.2976 54.3967 48.6375 56.5242C49.0845 56.5727 49.5379 56.6001 49.9978 56.6001C56.6118 56.6001 62.0192 51.446 62.4298 44.9354C62.4512 44.5968 62.7273 44.3309 63.0667 44.3309C64.1422 44.3309 65.0142 43.459 65.0142 42.3834V38.1743H62.4581V38.1744Z" fill="#FFCBBE"/>
<path d="M43.3115 59.3843L38.0681 63.6447L43.5669 70.4437C44.2358 71.0949 45.2886 71.1349 46.0051 70.5365L50.1403 67.0822L43.3115 59.3843Z" fill="#F4FBFF"/>
<path d="M56.686 59.3843L50.1404 67.0822L54.0269 70.4054C54.739 71.0141 55.7968 70.9835 56.4724 70.3346L61.9318 63.6447L56.686 59.3843Z" fill="#F4FBFF"/>
<path d="M43.3118 59.3843L35.6155 63.1654C35.0296 63.4532 34.7943 64.166 35.0935 64.7462L36.6013 67.6696C36.9921 68.4271 36.8479 69.3502 36.2447 69.9524C35.9343 70.2622 35.598 70.5979 35.3066 70.8888C34.7851 71.4094 34.5977 72.1787 34.8274 72.879C36.6479 78.4285 45.4094 86.9146 48.7252 89.9849C48.9482 89.9908 49.1716 89.9949 49.3955 89.9974C46.991 85.3204 38.4702 67.5513 43.3118 59.3843Z" fill="#0269AC"/>
<path d="M63.7532 69.9522C63.15 69.3501 63.0059 68.4269 63.3967 67.6694L64.9045 64.746C65.2037 64.1658 64.9684 63.453 64.3825 63.1652L56.6862 59.3843C61.5265 67.5491 53.0117 85.3107 50.6045 89.9937C50.8307 89.9898 51.0565 89.9841 51.2818 89.9766C54.6045 86.8993 63.3518 78.4235 65.1706 72.8791C65.4003 72.1788 65.2129 71.4096 64.6914 70.889C64.4 70.5979 64.0637 70.2621 63.7532 69.9522Z" fill="#0269AC"/>
<path d="M50.1405 67.0823L46.0686 70.4829L48.1433 73.1049H51.8569L53.9317 70.3282L50.1405 67.0823Z" fill="#DD636E"/>
</g>
<g clip-path="url(#clip1_119_286)">
<circle cx="87" cy="87" r="6" fill="white"/>
<path d="M87 77C81.48 77 77 81.48 77 87C77 92.52 81.48 97 87 97C92.52 97 97 92.52 97 87C97 81.48 92.52 77 87 77ZM92 88H88V92H86V88H82V86H86V82H88V86H92V88Z" fill="#3C79E6"/>
</g>
<defs>
<clipPath id="clip0_119_286">
<rect width="80" height="80" fill="white" transform="translate(10 10)"/>
</clipPath>
<clipPath id="clip1_119_286">
<rect width="24" height="24" fill="white" transform="translate(75 75)"/>
</clipPath>
</defs>
</svg>
