<svg width="44" height="44" viewBox="0 0 44 44" fill="none" xmlns="http://www.w3.org/2000/svg">
<circle cx="22" cy="22" r="22" fill="#0269AC" fill-opacity="0.08"/>
<path d="M24.7986 33.2571C24.5247 33.3123 23.8656 33.336 23.4417 33.3396C23.5821 33.711 23.9329 33.9822 24.3547 33.9991C24.8539 34.0189 25.2828 33.6766 25.3897 33.2065C25.3066 33.2135 25.2191 33.22 25.1273 33.2267C24.991 33.2365 24.85 33.2466 24.7986 33.257V33.2571ZM18.9989 33.2267C18.9069 33.22 18.8193 33.2135 18.7362 33.2065C18.8287 33.6111 19.1639 33.9348 19.5996 33.9913C20.0782 34.0535 20.5215 33.7725 20.6847 33.3396C20.2608 33.336 19.6016 33.3124 19.3275 33.257C19.2761 33.2466 19.1352 33.2365 18.9989 33.2267ZM16.024 23.4471C16.1108 23.4938 16.2078 23.5187 16.3064 23.5197C16.7421 24.1512 18.2105 26.4135 18.159 28.1487C18.0988 30.1849 18.4085 32.2068 18.0353 32.5636C17.662 32.9202 19.0941 32.9024 19.3872 32.9617C19.6803 33.0209 20.5789 33.0473 21.0212 33.0363C21.4636 33.0252 21.147 32.7383 21.1877 32.3953C21.2841 31.5834 21.4776 28.7755 21.6407 28.4176C21.7234 28.236 21.8581 27.6193 21.9605 26.8431H22.1658C22.2682 27.6193 22.4029 28.236 22.4856 28.4176C22.6487 28.7755 22.8422 31.5834 22.9386 32.3953C22.9793 32.7383 22.6626 33.0251 23.105 33.0362C23.5474 33.0473 24.4459 33.0208 24.739 32.9617C25.0322 32.9025 26.4643 32.9202 26.0911 32.5635C25.7178 32.2068 26.0275 30.1848 25.9672 28.1486C25.9158 26.4131 27.3848 24.1501 27.8201 23.5193C27.9701 23.5188 28.1147 23.4634 28.2267 23.3636C28.3386 23.2638 28.4102 23.1265 28.4278 22.9775C28.4779 22.5578 28.4883 22.1092 28.3961 21.6493C28.31 21.1902 28.1035 20.7384 27.8721 20.3722C27.6418 20.0051 27.4107 19.709 27.2944 19.4666C27.2329 19.3448 27.1988 19.2384 27.1786 19.1337L27.106 18.8469C27.0814 18.746 27.0478 18.6458 27.0189 18.5451C26.7717 17.7432 26.3892 16.9375 25.7916 16.2334C25.4914 15.8842 25.1415 15.5622 24.7362 15.2974C24.5307 15.1619 24.3143 15.0436 24.0893 14.9437C23.9716 14.8917 23.8515 14.8454 23.7294 14.8047C23.634 14.7727 23.537 14.7457 23.4388 14.7238C23.036 14.9643 22.5655 15.1031 22.0631 15.1031C21.5607 15.1031 21.0902 14.9643 20.6874 14.7238C20.5892 14.7457 20.4922 14.7727 20.3969 14.8047C20.2713 14.8464 20.1522 14.8929 20.0368 14.9437C19.8119 15.0436 19.5956 15.1619 19.3901 15.2974C18.9848 15.5622 18.6348 15.8842 18.3347 16.2334C17.737 16.9376 17.3545 17.7432 17.1075 18.5451C17.0783 18.6458 17.0449 18.746 17.0203 18.8469L16.9476 19.1337C16.9276 19.2384 16.8934 19.3448 16.8318 19.4666C16.7155 19.709 16.4845 20.0051 16.2542 20.3722C16.0228 20.7384 15.8162 21.1902 15.7302 21.6493C15.6379 22.1092 15.6484 22.5578 15.6985 22.9775C15.7226 23.1825 15.849 23.3547 16.024 23.4471ZM22.0631 23.6858C24.914 23.6858 26.6825 23.3622 27.2368 23.1042C27.2724 23.2073 27.3348 23.2991 27.4175 23.3701C26.2256 24.0086 22.2605 24.0173 22.0632 24.0173C21.8658 24.0173 17.903 24.0086 16.71 23.3706C16.792 23.3 16.854 23.209 16.8896 23.1068C17.4435 23.3622 19.2121 23.6858 22.0632 23.6858H22.0631ZM25.5464 19.6227C25.6345 19.8779 25.7596 20.115 25.8944 20.3132C26.0291 20.5143 26.1691 20.68 26.2967 20.828C26.4252 20.9762 26.54 21.1049 26.6411 21.2298C26.8406 21.4774 26.9813 21.7065 27.072 21.9794C27.1512 22.2111 27.1875 22.4743 27.1976 22.7514C26.9265 22.6542 26.5455 22.5605 26.0097 22.4748C25.8741 22.4531 25.7324 22.4326 25.5859 22.4135C25.5864 22.6025 25.5844 22.7872 25.5786 22.9668H25.2778C25.2938 22.4898 25.2778 21.9723 25.2778 21.4305C25.2778 20.5219 25.1074 19.477 24.7839 18.5313H25.0615C25.0989 18.5966 25.1351 18.6629 25.1701 18.7307C25.2391 18.8642 25.3029 19.0004 25.3613 19.1389C25.3919 19.2162 25.4269 19.2911 25.4545 19.3707L25.5464 19.6227ZM17.0543 21.9794C17.145 21.7065 17.2857 21.4774 17.4853 21.2298C17.5862 21.1049 17.7012 20.9762 17.8295 20.828C17.9571 20.68 18.0972 20.5143 18.2319 20.3132C18.3775 20.0992 18.4945 19.8671 18.5799 19.6227L18.6718 19.3707C18.6994 19.2911 18.7344 19.2162 18.765 19.1389C18.8233 19.0005 18.887 18.8644 18.9559 18.731C18.991 18.6632 19.0273 18.5967 19.0647 18.5313H19.3423C19.0188 19.4771 18.8486 20.5219 18.8486 21.4304C18.8486 21.9724 18.8325 22.4898 18.8486 22.9668H18.5476C18.542 22.7824 18.5395 22.5979 18.5403 22.4135C18.3938 22.4326 18.2523 22.4531 18.1166 22.4748C17.5808 22.5605 17.1997 22.6542 16.9288 22.7514C16.9388 22.4742 16.9751 22.2112 17.0543 21.9794Z" fill="#0269AC"/>
<path d="M24.474 12.4109C24.474 11.0794 23.3946 10 22.063 10C20.7315 10 19.6521 11.0794 19.6521 12.4109C19.6521 13.7424 20.7315 14.8218 22.063 14.8218C23.3946 14.8218 24.474 13.7424 24.474 12.4109ZM21.0422 13.3368C21.0422 13.3368 22.7816 13.5925 23.8303 12.8638C23.8303 12.8638 22.8162 15.2148 21.0422 13.3368ZM15.2853 23.8643C15.2982 23.8701 15.3121 23.8731 15.3262 23.8731C15.3403 23.8731 15.3543 23.8702 15.3672 23.8644C15.3801 23.8587 15.3916 23.8503 15.401 23.8398C15.4104 23.8293 15.4175 23.8169 15.4219 23.8035C15.4294 23.78 15.4281 23.7546 15.4181 23.732C15.4081 23.7094 15.3902 23.6913 15.3678 23.6811C15.3658 23.6802 15.1627 23.5853 15.093 23.3876C15.0483 23.2611 15.0666 23.1149 15.1476 22.9535C15.1588 22.9297 15.1603 22.9026 15.1517 22.8777C15.1432 22.8529 15.1252 22.8325 15.1018 22.8207C15.0783 22.809 15.0511 22.8069 15.0261 22.8149C15.0011 22.8229 14.9803 22.8404 14.968 22.8636C14.8612 23.0766 14.8397 23.2762 14.9043 23.4568C15.004 23.7357 15.2739 23.8592 15.2853 23.8643Z" fill="#0269AC"/>
<path d="M14.9348 24.1976C14.9478 24.2042 14.962 24.208 14.9765 24.2086C14.991 24.2092 15.0055 24.2066 15.019 24.201C15.0324 24.1955 15.0445 24.187 15.0543 24.1764C15.0642 24.1657 15.0716 24.153 15.0761 24.1392C15.0834 24.1165 15.0824 24.0921 15.0734 24.0701C15.0644 24.0481 15.0479 24.03 15.0268 24.019C15.0236 24.0173 14.7079 23.8499 14.6079 23.5202C14.5427 23.3043 14.5819 23.0626 14.7257 22.8015C14.7385 22.7781 14.7416 22.7506 14.7341 22.7251C14.7267 22.6995 14.7094 22.6779 14.686 22.665C14.6627 22.6522 14.6352 22.6491 14.6096 22.6566C14.584 22.664 14.5624 22.6813 14.5496 22.7047C14.3786 23.016 14.3338 23.3107 14.4165 23.5809C14.5424 23.9923 14.9188 24.1894 14.9348 24.1977V24.1976ZM28.582 23.814C28.6048 23.8643 28.6639 23.8869 28.7144 23.8643C28.7258 23.8593 28.9959 23.7357 29.0955 23.4569C29.1601 23.2762 29.1387 23.0766 29.0319 22.8635C29.026 22.8516 29.0179 22.841 29.0079 22.8322C28.9979 22.8235 28.9863 22.8168 28.9738 22.8126C28.9612 22.8083 28.9479 22.8066 28.9347 22.8076C28.9215 22.8085 28.9086 22.812 28.8967 22.818C28.8849 22.8239 28.8743 22.8321 28.8656 22.8422C28.857 22.8522 28.8504 22.8639 28.8463 22.8765C28.8421 22.8891 28.8405 22.9024 28.8416 22.9156C28.8426 22.9288 28.8462 22.9417 28.8523 22.9535C28.9332 23.1149 28.9515 23.261 28.9068 23.3876C28.8372 23.5853 28.6341 23.6802 28.632 23.6811C28.6078 23.6921 28.5889 23.7123 28.5796 23.7372C28.5702 23.7621 28.5711 23.7897 28.582 23.814Z" fill="#0269AC"/>
<path d="M29.3139 22.6651C29.2906 22.6779 29.2733 22.6995 29.2659 22.7251C29.2584 22.7506 29.2614 22.7781 29.2742 22.8015C29.4178 23.0626 29.4573 23.3044 29.3917 23.5202C29.2919 23.8499 28.9762 24.0173 28.9731 24.019C28.9495 24.0313 28.9318 24.0524 28.9237 24.0777C28.9156 24.1031 28.9179 24.1306 28.93 24.1542C28.9422 24.1779 28.9632 24.1957 28.9886 24.2038C29.0139 24.212 29.0414 24.2097 29.065 24.1976C29.081 24.1894 29.4574 23.9923 29.5834 23.5809C29.6661 23.3107 29.6213 23.016 29.4503 22.7046C29.4439 22.6931 29.4354 22.6829 29.425 22.6746C29.4147 22.6664 29.4029 22.6602 29.3902 22.6566C29.3776 22.6529 29.3643 22.6517 29.3512 22.6532C29.338 22.6547 29.3254 22.6587 29.3139 22.6651Z" fill="#0269AC"/>
</svg>
