<svg width="44" height="44" viewBox="0 0 44 44" fill="none" xmlns="http://www.w3.org/2000/svg">
<circle cx="22" cy="22" r="22" fill="#0269AC" fill-opacity="0.08"/>
<path d="M28.4765 22.9068C28.4897 22.6385 28.4993 22.3806 28.5059 22.1323H23.8571C23.8637 22.3807 23.8734 22.6386 23.8865 22.9068C23.9017 23.2141 23.7688 23.4946 23.5513 23.6807V30.1085C23.5513 30.7691 24.0869 31.3049 24.748 31.3049C25.4085 31.3049 25.9442 30.7691 25.9442 30.1085V24.4101H26.4185V30.1086C26.4185 30.7692 26.9543 31.305 27.6152 31.305C28.2758 31.305 28.8116 30.7692 28.8116 30.1086V23.6807C28.5942 23.4944 28.4614 23.2141 28.4765 22.9068Z" fill="#0269AC"/>
<path d="M22.4196 18.1647C22.1958 19.5761 22.1567 21.311 22.2395 22.988C22.2485 23.1713 22.33 23.3435 22.466 23.4667C22.602 23.5899 22.7814 23.654 22.9647 23.645C23.148 23.6359 23.3202 23.5544 23.4434 23.4184C23.5666 23.2824 23.6307 23.1031 23.6216 22.9198C23.5207 20.8769 23.6233 19.3605 23.7932 18.3117L24.0575 18.3399C23.9249 19.1424 23.8267 20.2683 23.8497 21.7862H28.5132C28.5362 20.2684 28.438 19.1424 28.3054 18.3399L28.5697 18.3117C28.7396 19.3604 28.8422 20.8769 28.7413 22.9198C28.7351 23.1014 28.8005 23.2781 28.9236 23.4119C29.0466 23.5456 29.2172 23.6256 29.3987 23.6346C29.5802 23.6435 29.758 23.5807 29.8936 23.4598C30.0292 23.3388 30.1117 23.1694 30.1234 22.988C30.2062 21.311 30.167 19.576 29.9433 18.1647C29.6841 16.5292 29.1764 15.3291 28.32 15.1615C28.255 15.1418 28.1875 15.1318 28.1196 15.1317H24.2431C24.1733 15.1317 24.1061 15.1423 24.0427 15.1615C23.1864 15.3294 22.6788 16.5294 22.4196 18.1647Z" fill="#0269AC"/>
<path d="M26.1814 14.728C27.487 14.728 28.5454 13.6696 28.5454 12.364C28.5454 11.0584 27.487 10 26.1814 10C24.8758 10 23.8174 11.0584 23.8174 12.364C23.8174 13.6696 24.8758 14.728 26.1814 14.728Z" fill="#0269AC"/>
<path d="M30.237 34V32.9236H31.198V32.1549H20.9733V32.9236H21.9342V34H30.237ZM19.9519 23.6022L12.8022 25.2935L14.263 29.7525L17.3169 28.9712L19.7789 31.2804L18.8887 28.5691L20.8744 28.0611L19.9519 23.6022ZM14.907 27.9974L14.8668 27.8298L15.0724 27.7686C15.1126 27.7566 15.1313 27.7449 15.1167 27.6839L14.8899 26.7375L14.6184 26.9727L14.4957 26.8392L14.8726 26.4641L15.0945 26.4109L15.3993 27.6832L15.6578 27.6332L15.6996 27.8076L14.907 27.9974ZM16.2584 27.7023C16.0638 27.7489 15.8703 27.7306 15.7753 27.6935L15.8059 27.4709C15.9185 27.5014 16.0588 27.518 16.1855 27.4877C16.3396 27.4508 16.4158 27.3393 16.3811 27.1942C16.3409 27.0266 16.2192 27.0082 16.0108 27.0579L15.9112 27.0817L15.8884 26.8862L16.1124 26.8324C16.1757 26.7766 16.2304 26.6653 16.2001 26.5385C16.1703 26.4142 16.0791 26.3736 15.9456 26.4056C15.8822 26.4209 15.8256 26.4439 15.7967 26.4628C15.7659 26.4845 15.7629 26.502 15.7721 26.5406L15.8068 26.6854L15.583 26.7199L15.5038 26.3895C15.6114 26.2992 15.76 26.2203 15.9366 26.1782C16.2491 26.1033 16.4177 26.2377 16.4637 26.4301C16.5059 26.6066 16.4442 26.7484 16.3466 26.8507C16.5254 26.8676 16.6191 26.9791 16.6571 27.1377C16.7107 27.3617 16.6116 27.6179 16.2584 27.7023ZM16.6521 26.1766L16.6093 25.9978L17.1209 25.8752L17.1619 26.0471L17.1003 26.069C17.0646 26.0801 17.0503 26.1003 17.0606 26.1432L17.1848 26.6616L17.5309 25.978L17.5293 25.9712L17.4188 25.9904L17.3766 25.8138L17.8544 25.6994L17.8951 25.8693L17.8379 25.8902C17.796 25.9049 17.7811 25.9324 17.7608 25.978L17.54 26.4259L18.1163 27.0325L18.24 27.01L18.2829 27.1889L17.7147 27.325L17.6736 27.1529L17.7573 27.1231C17.7993 27.1085 17.7973 27.0801 17.7688 27.0511L17.4034 26.6742L17.2565 26.9607L17.3194 27.2232L17.4252 27.2051L17.4681 27.384L16.9678 27.5038L16.9271 27.3341L16.9945 27.3059C17.0363 27.291 17.0406 27.2686 17.0314 27.23L16.7743 26.1569L16.6521 26.1766ZM19.0276 27.039C18.5906 27.1437 18.2837 26.9513 18.1579 26.4263C18.0179 25.8421 18.3144 25.5605 18.7062 25.4666C18.8872 25.4234 19.0713 25.4222 19.1828 25.4483L19.2691 25.8083L19.0532 25.8768L19.0158 25.7205C19.0066 25.682 18.9979 25.665 18.9589 25.6624C18.9154 25.6608 18.8368 25.6726 18.7713 25.6884C18.452 25.7647 18.3598 26.0093 18.4401 26.3444C18.5263 26.7043 18.6971 26.8886 18.9824 26.8201C19.0685 26.7996 19.1673 26.7518 19.214 26.7072L19.1278 26.3474L18.9785 26.3736L18.9362 26.197L19.4636 26.0706L19.5044 26.2405L19.4447 26.262C19.4074 26.2757 19.3932 26.2959 19.4039 26.3412L19.508 26.7758C19.4023 26.8944 19.2246 26.9919 19.0276 27.039Z" fill="#0269AC"/>
</svg>
