<svg width="44" height="44" viewBox="0 0 44 44" fill="none" xmlns="http://www.w3.org/2000/svg">
<circle cx="22" cy="22" r="22" fill="#0269AC" fill-opacity="0.08"/>
<path d="M26.7095 26.3335H29.3525V30.1817H26.7095V26.3335ZM20.8658 26.3335H23.5088V32.5195H20.8658V26.3335ZM29.3517 11.4805H14.6423V20.9856H29.3521V19.6236L29.3517 11.4805ZM24.0848 17.6612H17.4773C17.3779 17.6612 17.2825 17.6217 17.2122 17.5514C17.1418 17.4811 17.1023 17.3857 17.1023 17.2862C17.1023 17.1868 17.1418 17.0914 17.2122 17.0211C17.2825 16.9507 17.3779 16.9112 17.4773 16.9112H24.0848C24.1843 16.9112 24.2797 16.9507 24.35 17.0211C24.4203 17.0914 24.4598 17.1868 24.4598 17.2862C24.4598 17.3857 24.4203 17.4811 24.35 17.5514C24.2797 17.6217 24.1843 17.6612 24.0848 17.6612ZM26.5167 15.1232H17.477C17.3775 15.1232 17.2821 15.0837 17.2118 15.0134C17.1415 14.9431 17.102 14.8477 17.102 14.7482C17.102 14.6488 17.1415 14.5534 17.2118 14.4831C17.2821 14.4127 17.3775 14.3732 17.477 14.3732H26.5167C26.6162 14.3732 26.7115 14.4127 26.7819 14.4831C26.8522 14.5534 26.8917 14.6488 26.8917 14.7482C26.8917 14.8477 26.8522 14.9431 26.7819 15.0134C26.7115 15.0837 26.6162 15.1232 26.5167 15.1232Z" fill="#0269AC"/>
<path d="M31.9926 25.2032V20.3788C31.9926 20.1692 31.8219 19.9985 31.6127 19.9985H30.1018V21.3605C30.1018 21.46 30.0623 21.5554 29.992 21.6257C29.9217 21.696 29.8263 21.7355 29.7268 21.7355H14.2674C14.168 21.7355 14.0726 21.696 14.0023 21.6257C13.932 21.5554 13.8924 21.46 13.8924 21.3605V19.9985H12.3872C12.1779 19.9985 12.0073 20.1692 12.0073 20.3788V25.2032C12.0073 25.4132 12.1779 25.5834 12.3872 25.5834H14.2644L14.2701 25.5823H17.6634C17.6653 25.5823 17.6668 25.5834 17.6687 25.5834H20.4853L20.4909 25.5823H23.8836C23.8858 25.5823 23.8873 25.5834 23.8892 25.5834H26.3289L26.3346 25.5823H29.7272C29.7294 25.5823 29.7309 25.5834 29.7328 25.5834H31.6127C31.8219 25.5834 31.9926 25.4128 31.9926 25.2032ZM29.7268 23.5427H27.7292C27.6297 23.5427 27.5344 23.5032 27.464 23.4328C27.3937 23.3625 27.3542 23.2671 27.3542 23.1677C27.3542 23.0682 27.3937 22.9728 27.464 22.9025C27.5344 22.8322 27.6297 22.7927 27.7292 22.7927H29.7268C29.8263 22.7927 29.9217 22.8322 29.992 22.9025C30.0623 22.9728 30.1018 23.0682 30.1018 23.1677C30.1018 23.2671 30.0623 23.3625 29.992 23.4328C29.9217 23.5032 29.8263 23.5427 29.7268 23.5427ZM14.6451 26.3334H17.2884V30.1817H14.6451V26.3334Z" fill="#0269AC"/>
</svg>
