<svg width="24" height="24" viewBox="0 0 24 24" fill="none" xmlns="http://www.w3.org/2000/svg">
<path d="M14.3321 14.0018L12.2207 14.975C12.1515 15.0069 12.0762 15.0235 12 15.0235C11.9238 15.0235 11.8485 15.0069 11.7792 14.975L9.6679 14.0018L6.34915 20.2245C6.16181 20.5758 6.41634 21 6.81445 21H17.1855C17.5836 21 17.8382 20.5758 17.6508 20.2245L14.3321 14.0018ZM13.8349 13.0696L12.4653 10.5016C12.2668 10.1293 11.7332 10.1293 11.5347 10.5016L10.165 13.0696L12 13.9154L13.8349 13.0696ZM12.5273 9.25781V6.79688H15.5156C15.6055 6.79688 15.6939 6.7739 15.7724 6.73013C15.8509 6.68636 15.917 6.62325 15.9642 6.54678C16.0115 6.47032 16.0384 6.38304 16.0424 6.29324C16.0465 6.20345 16.0275 6.1141 15.9873 6.0337L15.4052 4.86947L15.9823 3.77298C16.0246 3.69261 16.0455 3.60267 16.0428 3.51188C16.0401 3.42109 16.0141 3.33253 15.9671 3.25478C15.9202 3.17702 15.8539 3.11271 15.7748 3.06808C15.6957 3.02344 15.6064 2.99999 15.5156 3H12C11.7088 3 11.4726 3.23611 11.4726 3.52734V9.25781C11.6393 9.19903 11.8171 9.16774 12 9.16774C12.1828 9.16774 12.3607 9.19903 12.5273 9.25781ZM20.9379 20.2245L16.4379 11.787C16.393 11.7027 16.3259 11.6321 16.244 11.5829C16.162 11.5338 16.0682 11.5078 15.9726 11.5078C15.8771 11.5078 15.7833 11.5338 15.7013 11.5829C15.6194 11.6321 15.5523 11.7027 15.5074 11.787L14.9268 12.8756L18.5815 19.7282C18.7948 20.1281 18.8259 20.5854 18.6777 21H20.4726C20.5637 21 20.6532 20.9764 20.7325 20.9315C20.8117 20.8866 20.878 20.822 20.9248 20.7439C20.9717 20.6659 20.9975 20.577 20.9998 20.4859C21.0021 20.3949 20.9808 20.3048 20.9379 20.2245ZM9.07324 12.8756L8.49263 11.787C8.44766 11.7027 8.38061 11.6321 8.29865 11.5829C8.2167 11.5338 8.12292 11.5078 8.02734 11.5078C7.93176 11.5078 7.83798 11.5338 7.75602 11.5829C7.67406 11.6321 7.60702 11.7027 7.56204 11.787L3.06204 20.2245C3.01919 20.3048 2.99787 20.3949 3.00017 20.486C3.00246 20.577 3.0283 20.6659 3.07515 20.744C3.122 20.8221 3.18827 20.8867 3.26752 20.9315C3.34676 20.9764 3.43627 21 3.52734 21H5.32231C5.17413 20.5854 5.2052 20.1282 5.41853 19.7282L9.07324 12.8756Z" fill="#0269AC"/>
</svg>
