<svg width="24" height="24" viewBox="0 0 24 24" fill="none" xmlns="http://www.w3.org/2000/svg">
<g clip-path="url(#clip0_20_2889)">
<path d="M20.5165 10.8291C20.5161 10.8287 20.5157 10.8283 20.5152 10.8279L13.1719 3.4856C12.8589 3.17249 12.4428 3 12.0001 3C11.5575 3 11.1413 3.17235 10.8282 3.48546L3.48869 10.8241C3.48621 10.8265 3.48374 10.8291 3.48127 10.8316C2.8385 11.478 2.8396 12.5268 3.48443 13.1716C3.77903 13.4663 4.16812 13.637 4.58413 13.6548C4.60103 13.6565 4.61806 13.6573 4.63523 13.6573H4.9279V19.0608C4.9279 20.13 5.79797 21 6.8676 21H9.74054C10.0317 21 10.2679 20.7639 10.2679 20.4727V16.2363C10.2679 15.7484 10.6649 15.3515 11.1528 15.3515H12.8474C13.3354 15.3515 13.7323 15.7484 13.7323 16.2363V20.4727C13.7323 20.7639 13.9684 21 14.2597 21H17.1326C18.2023 21 19.0723 20.13 19.0723 19.0608V13.6573H19.3437C19.7862 13.6573 20.2024 13.4849 20.5157 13.1718C21.1612 12.526 21.1614 11.4754 20.5165 10.8291Z" fill="#0269AC"/>
</g>
<defs>
<clipPath id="clip0_20_2889">
<rect width="24" height="24" fill="white"/>
</clipPath>
</defs>
</svg>
