<svg width="23" height="27" viewBox="0 0 23 27" fill="none" xmlns="http://www.w3.org/2000/svg">
<path d="M15.8125 0.792386V23.0471C15.8125 23.49 15.4964 23.8381 15.0938 23.8381H9.34375C8.94114 23.8381 8.625 23.49 8.625 23.0471L0 0.792386C0 0.349278 0.316138 0.00134277 0.71875 0.00134277H15.0938C15.4964 0.00134277 15.8125 0.349278 15.8125 0.792386Z" fill="#818687"/>
<path d="M15.8125 0.792264V23.0469C15.8125 23.4898 15.4964 23.838 15.0938 23.838H9.34375C8.94114 23.838 8.625 23.4898 8.625 23.0469L6.46875 17.5096V0.0012207H15.0938C15.4964 0.0012207 15.8125 0.349156 15.8125 0.792264Z" fill="#8B8B8B"/>
<path d="M9.65989 4.82579L1.03489 0.0795291C0.81945 -0.0312993 0.546175 -0.0312993 0.344963 0.111253C0.129338 0.269256 0 0.522431 0 0.791468V23.0461C0 23.3941 0.201213 23.6948 0.488713 23.7896L6.46875 25.9889L9.11371 26.9538C9.32541 27.0471 9.59662 26.9944 9.76059 26.859C9.94758 26.7008 10.0625 26.4635 10.0625 26.2103V5.53773C10.0625 5.23717 9.90434 4.96813 9.65989 4.82579Z" fill="#0269AC"/>
<path d="M10.0625 5.53768V26.2103C10.0625 26.4634 9.94739 26.7008 9.76059 26.859C9.59812 26.9931 9.32747 27.0481 9.11371 26.9537L6.46875 25.9888V3.06958L9.65989 4.82574C9.90434 4.96808 10.0625 5.23712 10.0625 5.53768Z" fill="#0269AC"/>
<path d="M17.6298 17.4154C17.396 17.278 17.25 17.0099 17.25 16.7178V15.9268H12.2188C11.8214 15.9268 11.5 15.5729 11.5 15.1358V11.9716C11.5 11.5342 11.8214 11.1805 12.2188 11.1805H17.25V10.3895C17.25 10.0974 17.396 9.82938 17.6298 9.69177C17.8628 9.55519 18.1471 9.57064 18.3674 9.73132L22.6799 12.8955C22.88 13.0422 23 13.2894 23 13.5537C23 13.8178 22.88 14.065 22.6799 14.2116L18.3674 17.3758C18.1445 17.5396 17.8602 17.5515 17.6298 17.4154Z" fill="#0269AC"/>
<path d="M7.1875 11.9716V15.1358C7.1875 15.5787 6.87136 15.9268 6.46875 15.9268C6.06614 15.9268 5.75 15.5787 5.75 15.1358V11.9716C5.75 11.5285 6.06614 11.1805 6.46875 11.1805C6.87136 11.1805 7.1875 11.5285 7.1875 11.9716Z" fill="#FFF5F5"/>
<path d="M7.1875 11.9716V15.1358C7.1875 15.5787 6.87136 15.9268 6.46875 15.9268V11.1805C6.87136 11.1805 7.1875 11.5285 7.1875 11.9716Z" fill="#EFE2DD"/>
</svg>
