<svg width="24" height="24" viewBox="0 0 24 24" fill="none" xmlns="http://www.w3.org/2000/svg">
<path d="M20.4098 5.65574H19.8189C20.0112 5.91076 20.1151 6.22156 20.1148 6.54098V20.1148C20.1148 20.4466 20.0045 20.7532 19.8189 21H20.4098C20.8988 21 21.2951 20.6037 21.2951 20.1148V6.54098C21.2951 6.05207 20.8988 5.65574 20.4098 5.65574ZM18.6393 5.65574H18.553C18.6103 5.46425 18.6394 5.26544 18.6393 5.06557C18.6393 3.92659 17.7128 3 16.5738 3C15.4348 3 14.5082 3.92659 14.5082 5.06557C14.5082 5.27062 14.5387 5.46862 14.5945 5.65574H15.2219C15.1403 5.4697 15.0982 5.26873 15.0984 5.06557C15.0984 4.25203 15.7602 3.59016 16.5738 3.59016C17.3873 3.59016 18.0492 4.25203 18.0492 5.06557C18.0493 5.26873 18.0072 5.4697 17.9256 5.65574H15.2219C15.4501 6.17626 15.97 6.54098 16.5738 6.54098V7.13115C15.6398 7.13115 14.8492 6.50797 14.5945 5.65574H13.2415C13.2988 5.46425 13.3279 5.26544 13.3278 5.06557C13.3278 3.92659 12.4012 3 11.2623 3C10.1233 3 9.19668 3.92659 9.19668 5.06557C9.19668 5.27062 9.22715 5.46862 9.28303 5.65574H9.91041C9.82879 5.4697 9.78671 5.26873 9.78685 5.06557C9.78685 4.25203 10.4487 3.59016 11.2623 3.59016C12.0758 3.59016 12.7377 4.25203 12.7377 5.06557C12.7378 5.26873 12.6957 5.4697 12.6141 5.65574H9.91041C10.1385 6.17626 10.6585 6.54098 11.2623 6.54098V7.13115C10.3283 7.13115 9.53765 6.50797 9.28303 5.65574H7.92997C7.98726 5.46425 8.01635 5.26544 8.01632 5.06557C8.01632 3.92659 7.08973 3 5.95075 3C4.81177 3 3.88517 3.92659 3.88517 5.06557C3.88517 5.27062 3.91564 5.46862 3.97152 5.65574H4.5989C4.51728 5.4697 4.4752 5.26873 4.47534 5.06557C4.47534 4.25203 5.13721 3.59016 5.95075 3.59016C6.76429 3.59016 7.42616 4.25203 7.42616 5.06557C7.42629 5.26873 7.38421 5.4697 7.30259 5.65574H4.59898C4.82711 6.17626 5.34705 6.54098 5.95082 6.54098V7.13115C5.01689 7.13115 4.22621 6.50797 3.97159 5.65574H3.88525C3.39633 5.65574 3 6.05207 3 6.54098V8.31148H19.5246V6.54098C19.5246 6.05207 19.1283 5.65574 18.6393 5.65574ZM3 20.1148C3 20.6037 3.39633 21 3.88525 21H5.65574V15.6885L5.0333 15.2736C4.95246 15.2197 4.88617 15.1467 4.84033 15.061C4.79448 14.9753 4.77049 14.8797 4.77049 14.7825V11.5574H5.36066V14.2131H5.95082V11.5574H6.54098V14.2131H7.13115V11.5574H7.72131V14.7825C7.72131 14.9798 7.62268 15.1641 7.4585 15.2736L6.83607 15.6885V21H9.78689V11.5574C9.78689 11.5574 11.4098 11.8525 11.4098 13.1803V16.5738H10.9672V21H18.6393C19.1283 21 19.5246 20.6037 19.5246 20.1148V8.90164H3V20.1148ZM18.3443 19.5246H15.9836V18.9344H18.3443V19.5246ZM18.3443 14.2131H15.0984V13.623H18.3443V14.2131ZM14.2131 11.8525H18.3443V12.4426H14.2131V11.8525ZM13.0328 13.623H14.5082V14.2131H13.0328V13.623ZM13.0328 15.3934H18.3443V15.9836H13.0328V15.3934ZM13.0328 17.1639H18.3443V17.7541H13.0328V17.1639ZM13.0328 18.9344H15.3934V19.5246H13.0328V18.9344ZM5.65574 9.78689H10.9672V10.377H5.65574V9.78689Z" fill="#0269AC"/>
</svg>
