<svg width="24" height="24" viewBox="0 0 24 24" fill="none" xmlns="http://www.w3.org/2000/svg">
<path d="M20.6888 3H11.6457C10.5992 3 9.75098 3.84834 9.75098 4.89468V9.34907C10.229 9.58667 10.7456 9.8436 11.2276 10.0832L11.9653 8.60743C12.4119 7.71494 13.5006 7.35232 14.3928 7.79816C15.2868 8.24561 15.6491 9.33135 15.2015 10.2256L13.8866 12.856C13.9219 13.2051 13.8899 13.5577 13.7924 13.8948H14.6605L12.3709 20.1908C12.235 20.5642 12.4976 21 12.9378 21C13.1839 21 13.4154 20.8482 13.5042 20.6028L15.9437 13.8948H16.3663L18.8305 20.6049C18.9202 20.8489 19.1511 21 19.397 21C19.8083 21 20.1098 20.5892 19.9626 20.1892L17.651 13.8948H20.6888C21.7351 13.8948 22.5835 13.0464 22.5835 12.0001V4.89472C22.5835 3.84834 21.7351 3 20.6888 3ZM19.3967 11.3113H16.6911C16.3581 11.3113 16.088 11.0412 16.088 10.7083C16.088 10.375 16.3581 10.1052 16.6911 10.1052H19.3967C19.7299 10.1052 19.9997 10.375 19.9997 10.7083C19.9997 11.0412 19.73 11.3113 19.3967 11.3113ZM19.3967 9.05041H16.6911C16.3581 9.05041 16.088 8.78066 16.088 8.44738C16.088 8.11447 16.3581 7.84435 16.6911 7.84435H19.3967C19.7299 7.84435 19.9997 8.11447 19.9997 8.44738C19.9997 8.78066 19.73 9.05041 19.3967 9.05041ZM19.3967 6.78985H12.9378C12.6045 6.78985 12.3348 6.51969 12.3348 6.18682C12.3348 5.85395 12.6045 5.58379 12.9378 5.58379H19.3967C19.7299 5.58379 19.9997 5.85387 19.9997 6.18682C19.9997 6.51977 19.7299 6.78985 19.3967 6.78985Z" fill="#0269AC"/>
<path d="M12.6102 13.6361C12.7192 13.3169 12.7184 12.9833 12.6264 12.679L14.123 9.68608C14.2718 9.38818 14.1512 9.02592 13.8533 8.87701C13.5556 8.72798 13.1933 8.84875 13.0443 9.14669L11.7679 11.6992C11.0049 11.3193 9.84584 10.743 8.91211 10.2786C8.04334 9.84661 7.42334 9.45918 6.36554 9.45918H5.83271C6.65637 9.45918 7.39146 9.08007 7.87264 8.48677C8.23981 8.0353 8.45935 7.45989 8.45935 6.83286C8.45935 5.38197 7.28344 4.20605 5.83238 4.20605C4.38197 4.20605 3.20606 5.38197 3.20606 6.83286C3.20606 7.52964 3.47743 8.16282 3.92013 8.63271C4.39878 9.14166 5.07859 9.45918 5.83222 9.45934C4.82182 9.45934 3.83406 9.86872 3.12345 10.5812C2.39901 11.3038 2 12.2664 2 13.2919V15.2296C2 16.0638 2.54164 16.7736 3.29181 17.0261V20.3968C3.29181 20.7299 3.56177 20.9998 3.89484 20.9998H7.77025C8.10332 20.9998 8.37328 20.7299 8.37328 20.3968V13.6214C8.94507 13.9072 9.69621 14.2827 10.3039 14.5867C10.73 14.7997 11.2278 14.8188 11.6717 14.6382C12.1144 14.4561 12.4557 14.0935 12.6078 13.6432L12.6102 13.6361Z" fill="#0269AC"/>
</svg>
