<svg width="24" height="24" viewBox="0 0 24 24" fill="none" xmlns="http://www.w3.org/2000/svg">
<path d="M20.6771 6.17628H20.1642V4.45884C20.1642 4.37355 20.1303 4.29176 20.07 4.23145C20.0097 4.17115 19.9279 4.13727 19.8426 4.13727H18.9641C18.8788 4.13727 18.797 4.17115 18.7367 4.23145C18.6764 4.29176 18.6425 4.37355 18.6425 4.45884V6.17628H17.5196C17.5664 5.68442 17.2042 5.25373 16.7243 5.20299C16.2307 5.15094 15.793 5.51175 15.7416 5.99774L15.7227 6.17625H14.175C13.7185 7.16204 12.733 7.79851 11.6415 7.79851C10.5349 7.79851 9.55783 7.14758 9.10792 6.17625H7.5659L7.54702 5.99774C7.49523 5.50814 7.0535 5.1512 6.56428 5.20296C6.08504 5.25369 5.72211 5.68389 5.76901 6.17632H4.64316V4.45887C4.64316 4.37359 4.60928 4.2918 4.54898 4.23149C4.48867 4.17119 4.40688 4.13731 4.3216 4.13731H3.44308C3.35779 4.13731 3.276 4.17119 3.2157 4.23149C3.15539 4.2918 3.12151 4.37359 3.12151 4.45887V6.17632H2.60867C2.27249 6.17628 2 6.44877 2 6.78495C2 7.1211 2.27249 7.39362 2.60867 7.39362H3.12155V9.11107C3.12155 9.19635 3.15543 9.27814 3.21573 9.33845C3.27604 9.39876 3.35783 9.43263 3.44312 9.43263H4.32163C4.40692 9.43263 4.48871 9.39876 4.54902 9.33845C4.60932 9.27814 4.6432 9.19635 4.6432 9.11107V7.39362H5.89719C5.93572 7.75783 6.20806 10.333 6.24829 10.7139C6.32908 11.4781 7.29186 11.8012 7.81006 11.208L9.06611 9.77055V13.1902L5.81609 14.5106C5.6296 14.5864 5.46599 14.7093 5.34129 14.8673C5.21658 15.0253 5.13506 15.213 5.1047 15.412L4.4563 19.6628C4.35949 20.2973 4.79538 20.8901 5.42985 20.9869C6.06432 21.0836 6.65713 20.6478 6.7539 20.0133L7.30279 16.4152L10.3093 15.1937H12.9782L15.9848 16.4152L16.5337 20.0133C16.6305 20.6479 17.2232 21.0836 17.8577 20.9869C18.4922 20.8901 18.928 20.2973 18.8313 19.6628L18.1828 15.4119C18.1524 15.2129 18.0709 15.0253 17.9462 14.8672C17.8215 14.7092 17.6579 14.5863 17.4714 14.5105L14.1956 13.1796V9.73989L15.4784 11.2079C15.9828 11.7852 16.957 11.4992 17.0402 10.7139L17.3913 7.39358H18.6425V9.11103C18.6425 9.19632 18.6764 9.27811 18.7367 9.33841C18.797 9.39872 18.8788 9.4326 18.9641 9.4326H19.8426C19.9279 9.4326 20.0097 9.39872 20.07 9.33841C20.1303 9.27811 20.1642 9.19632 20.1642 9.11103V7.39358H20.6771C21.0133 7.39358 21.2858 7.1211 21.2858 6.78491C21.2857 6.44877 21.0133 6.17628 20.6771 6.17628ZM7.81062 8.49084L7.69457 7.39358H8.76937C8.44981 7.75936 8.13023 8.12511 7.81062 8.49084ZM15.4779 8.49084L14.5191 7.39358H15.5939L15.4779 8.49084Z" fill="#0269AC"/>
<path d="M11.6415 7.01433C12.7499 7.01433 13.6485 6.11573 13.6485 5.00726C13.6485 3.89878 12.7499 3.00018 11.6415 3.00018C10.533 3.00018 9.6344 3.89878 9.6344 5.00726C9.6344 6.11573 10.533 7.01433 11.6415 7.01433Z" fill="#0269AC"/>
</svg>
