<svg width="24" height="24" viewBox="0 0 24 24" fill="none" xmlns="http://www.w3.org/2000/svg">
<path d="M19.4981 15.0006H17.9983C17.3759 15.0006 16.8734 15.5031 16.8734 16.1255H10.8741C10.8741 15.5031 10.3679 15.0006 9.74922 15.0006H8.24938C7.62696 15.0006 7.12451 15.5031 7.12451 16.1255V18.3752C7.12451 18.9939 7.62696 19.5001 8.24938 19.5001H9.74922C10.3679 19.5001 10.8741 18.9939 10.8741 18.3752H16.8734C16.8734 18.9939 17.3759 19.5001 17.9983 19.5001H19.4981C20.1168 19.5001 20.623 18.9939 20.623 18.3752V16.1255C20.623 15.5031 20.1168 15.0006 19.4981 15.0006Z" fill="#0269AC"/>
<path d="M16.281 19.1253H11.4665C11.1778 19.7852 10.5179 20.2501 9.74924 20.2501H8.24941C7.21453 20.2501 6.37462 19.4102 6.37462 18.3754V16.1256C6.37462 15.0907 7.21453 14.2508 8.24941 14.2508H9.74924C10.5179 14.2508 11.1778 14.7158 11.4665 15.3757H16.281C16.4685 14.9445 16.8172 14.5995 17.2484 14.412V6.3767C17.2484 5.75427 16.761 5.25183 16.1648 5.25183H15.3361C15.3586 5.37182 15.3736 5.4993 15.3736 5.62679V6.3767C15.3736 6.99538 14.8674 7.50158 14.2487 7.50158H5.99966C5.38098 7.50158 4.87479 6.99538 4.87479 6.3767V5.62679C4.87479 5.4993 4.88979 5.37182 4.91228 5.25183H4.08363C3.4837 5.25183 3 5.75427 3 6.3767V19.8752C3 20.4939 3.4837 21.0001 4.08363 21.0001H16.1648C16.6935 21.0001 17.1322 20.6026 17.2259 20.0814C16.8038 19.8901 16.4673 19.5496 16.281 19.1253ZM5.99966 8.62645H11.2491C11.4553 8.62645 11.624 8.79143 11.624 9.00141C11.624 9.20764 11.4553 9.37637 11.2491 9.37637H5.99966C5.79344 9.37637 5.6247 9.20764 5.6247 9.00141C5.6247 8.79143 5.79344 8.62645 5.99966 8.62645ZM5.99966 10.5012H13.4988C13.705 10.5012 13.8738 10.6662 13.8738 10.8762C13.8738 11.0824 13.705 11.2512 13.4988 11.2512H5.99966C5.79344 11.2512 5.6247 11.0824 5.6247 10.8762C5.6247 10.6662 5.79344 10.5012 5.99966 10.5012ZM5.6247 12.751C5.6247 12.541 5.79344 12.376 5.99966 12.376H13.4988C13.705 12.376 13.8738 12.541 13.8738 12.751C13.8738 12.9572 13.705 13.1259 13.4988 13.1259H5.99966C5.79344 13.1259 5.6247 12.9572 5.6247 12.751Z" fill="#0269AC"/>
<path d="M5.62463 5.62661V6.37653C5.62463 6.58275 5.79336 6.75148 5.99959 6.75148H14.2487C14.4549 6.75148 14.6236 6.58275 14.6236 6.37653V5.62661C14.6236 5.00418 14.1174 4.50174 13.4987 4.50174H11.624C11.5902 3.69558 10.979 3.04315 10.2029 3.00191C9.99941 2.99132 9.79593 3.02227 9.60482 3.09288C9.41371 3.16349 9.23898 3.27227 9.09128 3.4126C8.94359 3.55293 8.82601 3.72187 8.74572 3.90912C8.66544 4.09637 8.62412 4.298 8.6243 4.50174H6.74951C6.12708 4.50174 5.62463 5.00418 5.62463 5.62661Z" fill="#0269AC"/>
</svg>
